<svg xmlns="http://www.w3.org/2000/svg" width="500" height="750" viewBox="0 0 500 750" fill="none">
  <rect width="500" height="750" fill="#E5E7EB"/>
  <path d="M250 300C250 244.772 294.772 200 350 200H500V750H200V350C200 322.386 222.386 300 250 300Z" fill="#D1D5DB"/>
  <path d="M150 225C150 191.863 176.863 165 210 165H500V275H210C176.863 275 150 248.137 150 225Z" fill="#D1D5DB"/>
  <path d="M225 375H400M225 425H350M225 475H375" stroke="#9CA3AF" stroke-width="20" stroke-linecap="round"/>
  <path fill-rule="evenodd" clip-rule="evenodd" d="M300 150C300 121.34 276.51 98 247.5 98C218.49 98 195 121.34 195 150C195 178.66 218.49 202 247.5 202C276.51 202 300 178.66 300 150ZM247.5 182C265.449 182 280 167.449 280 149.5C280 131.551 265.449 117 247.5 117C229.551 117 215 131.551 215 149.5C215 167.449 229.551 182 247.5 182Z" fill="#9CA3AF"/>
</svg> 